<?xml version="1.0" standalone="no"?>
<!DOCTYPE svg PUBLIC "-//W3C//DTD SVG 20010904//EN"
 "http://www.w3.org/TR/2001/REC-SVG-20010904/DTD/svg10.dtd">
<svg version="1.0" xmlns="http://www.w3.org/2000/svg"
 width="700.000000pt" height="700.000000pt" viewBox="0 0 700.000000 700.000000"
 preserveAspectRatio="xMidYMid meet">
<metadata>
Created by potrace 1.14, written by Peter Selinger 2001-2017
</metadata>
<g transform="translate(0.000000,700.000000) scale(0.100000,-0.100000)"
fill="#000000" stroke="none">
<path d="M2589 6425 c-488 -76 -895 -359 -1096 -760 -66 -130 -114 -299 -125
-435 -3 -34 -7 -37 -108 -87 -58 -29 -132 -60 -165 -68 -88 -22 -233 -19 -401
10 -246 42 -321 33 -369 -47 -17 -29 -20 -50 -20 -168 1 -110 5 -150 23 -214
134 -469 573 -770 1157 -793 l141 -6 58 -99 c57 -98 57 -99 39 -122 -10 -13
-72 -89 -139 -168 -470 -560 -644 -948 -644 -1438 0 -287 50 -508 170 -755
206 -426 578 -703 1090 -812 105 -22 151 -25 515 -34 220 -6 760 -8 1200 -6
890 4 878 3 1100 74 462 149 893 515 1215 1034 304 490 478 1057 505 1649 7
156 -2 188 -71 227 -57 33 -93 29 -192 -21 -281 -140 -543 -202 -754 -176
-177 21 -274 53 -673 222 -222 94 -397 155 -555 192 -119 29 -314 56 -396 56
l-55 0 83 93 c222 244 332 499 367 846 95 933 -484 1674 -1410 1806 -127 18
-373 18 -490 0z m456 -280 c320 -52 571 -179 791 -399 180 -180 283 -361 346
-604 25 -97 31 -144 35 -273 15 -406 -88 -700 -327 -938 -102 -102 -203 -176
-359 -263 -132 -73 -155 -101 -148 -181 3 -35 12 -56 33 -78 44 -46 76 -50
221 -27 172 28 512 30 653 4 222 -40 375 -91 715 -236 290 -124 451 -171 661
-192 204 -20 450 13 678 91 49 17 92 29 94 26 9 -8 -19 -216 -49 -373 -109
-563 -370 -1084 -729 -1456 -271 -280 -545 -447 -855 -519 -88 -21 -114 -21
-1198 -24 -952 -3 -1125 -2 -1226 12 -273 35 -503 125 -689 268 -83 63 -212
207 -271 301 -137 220 -202 457 -202 741 0 239 41 413 151 640 99 204 214 368
479 685 193 230 201 242 201 294 0 34 -16 68 -89 194 l-90 152 55 86 c76 122
75 140 -15 277 -147 222 -223 383 -257 542 -22 107 -22 312 1 420 34 160 125
337 239 463 108 119 294 240 467 305 62 24 220 63 284 70 82 10 319 6 400 -8z
m-1590 -1535 c44 -105 113 -239 170 -326 l53 -82 -25 -37 -26 -38 -141 6
c-157 6 -222 16 -346 54 -270 81 -463 267 -525 508 -18 72 -19 115 -2 115 6 0
48 -7 92 -16 50 -11 132 -17 220 -17 154 -1 254 18 384 73 l66 28 27 -101 c14
-56 39 -131 53 -167z"/>
<path d="M2234 5374 c-145 -51 -218 -236 -150 -379 66 -139 233 -198 371 -131
163 80 205 281 90 432 -14 18 -53 46 -86 63 -71 35 -152 41 -225 15z"/>
<path d="M2990 2933 c-70 -7 -236 -46 -299 -69 -326 -123 -554 -369 -617 -666
-22 -101 -14 -313 15 -423 80 -303 326 -571 643 -698 288 -117 548 -119 1398
-12 151 19 337 41 413 50 76 8 146 19 157 25 30 16 69 69 75 103 12 64 -17
107 -131 198 -57 45 -104 85 -104 89 0 4 92 64 205 135 222 138 235 150 235
229 0 74 -15 92 -146 180 l-122 81 255 130 c271 137 290 152 300 224 7 48 -20
107 -59 131 -16 9 -90 27 -166 39 -75 12 -294 51 -487 86 -576 105 -840 144
-1104 165 -127 9 -382 11 -461 3z m468 -288 c278 -29 1153 -160 1212 -181 9
-4 -52 -39 -150 -89 -91 -46 -176 -94 -189 -109 -17 -18 -25 -41 -29 -77 -8
-81 10 -104 160 -204 117 -78 128 -88 112 -99 -11 -7 -101 -63 -200 -126 -112
-70 -188 -123 -198 -140 -20 -34 -21 -112 -2 -148 8 -15 38 -45 66 -67 29 -21
49 -40 44 -42 -23 -6 -527 -65 -679 -78 -238 -22 -530 -24 -620 -3 -264 60
-471 212 -579 426 -71 140 -91 351 -47 492 74 239 268 389 575 445 98 18 348
18 524 0z"/>
</g>
</svg>
