<?xml version="1.0" encoding="UTF-8" standalone="no"?>
<!-- Created with Inkscape (http://www.inkscape.org/) -->

<svg
   xmlns:dc="http://purl.org/dc/elements/1.1/"
   xmlns:cc="http://creativecommons.org/ns#"
   xmlns:rdf="http://www.w3.org/1999/02/22-rdf-syntax-ns#"
   xmlns:svg="http://www.w3.org/2000/svg"
   xmlns="http://www.w3.org/2000/svg"
   xmlns:sodipodi="http://sodipodi.sourceforge.net/DTD/sodipodi-0.dtd"
   xmlns:inkscape="http://www.inkscape.org/namespaces/inkscape"
   version="1.1"
   id="svg10"
   width="528.92816"
   height="321.68884"
   viewBox="0 0 528.92816 321.68884"
   sodipodi:docname="mylogo-pink.svg"
   inkscape:version="0.92.5 (2060ec1f9f, 2020-04-08)">
  <metadata
     id="metadata16">
    <rdf:RDF>
      <cc:Work
         rdf:about="">
        <dc:format>image/svg+xml</dc:format>
        <dc:type
           rdf:resource="http://purl.org/dc/dcmitype/StillImage" />
        <dc:title />
      </cc:Work>
    </rdf:RDF>
  </metadata>
  <defs
     id="defs14" />
  <sodipodi:namedview
     pagecolor="#ffffff"
     bordercolor="#666666"
     borderopacity="1"
     objecttolerance="10"
     gridtolerance="10"
     guidetolerance="10"
     inkscape:pageopacity="0"
     inkscape:pageshadow="2"
     inkscape:window-width="1864"
     inkscape:window-height="1016"
     id="namedview12"
     showgrid="false"
     fit-margin-top="0"
     fit-margin-left="0"
     fit-margin-right="0"
     fit-margin-bottom="0"
     inkscape:zoom="1.2874877"
     inkscape:cx="128.36294"
     inkscape:cy="86.04566"
     inkscape:window-x="56"
     inkscape:window-y="27"
     inkscape:window-maximized="1"
     inkscape:current-layer="svg10" />
  <path
     style="display:none;fill:#000000;stroke-width:0.95999998"
     d="m 303.20643,290.72883 c -8.50814,-17.028 -15.60386,-31.10642 -15.76828,-31.28537 -0.16442,-0.17896 -1.95253,1.54904 -3.97357,3.84 -14.888,16.87628 -25.2217,25.49781 -42.99574,35.87187 -23.49461,13.71294 -51.67608,21.51662 -77.83876,21.55416 C 117.01679,320.77494 76.919621,304.74412 46.427143,274.25165 24.500722,252.32522 10.296835,226.01276 3.1107896,194.00883 1.0537463,184.84754 0.55528897,179.76675 0.18166467,164.15217 -0.23567413,146.71066 -0.08377903,144.38166 2.2600834,132.28385 14.653845,68.31364 59.879051,20.380501 122.34996,5.0034037 c 35.57337,-8.7563214 72.07215,-4.76122679 108.48,11.8740383 20.48064,9.357897 46.49921,31.635179 60.41145,51.72471 l 6.5604,9.473322 -76.22157,76.221566 -76.22156,76.22156 -5.25711,-1.5612 c -12.95059,-3.84591 -27.15452,-13.23684 -35.085,-23.19643 -5.124212,-6.43532 -11.074532,-17.70599 -13.29454,-25.18155 l -1.560538,-5.25492 47.152448,-47.15966 47.15244,-47.159666 -8.80034,-1.709334 c -36.32512,-7.055612 -73.89586,11.744206 -90.2363,45.15285 -6.433998,13.15455 -8.157977,20.90992 -8.100464,36.44014 0.05786,15.62399 1.742926,23.28855 7.955542,36.18596 10.17229,21.11772 30.003002,37.51671 53.385142,44.1468 10.98108,3.11373 31.23399,3.13072 42.03696,0.0352 18.22529,-5.22221 33.96142,-15.48733 44.25357,-28.8678 8.86318,-11.52272 16.0891,-30.14613 17.472,-45.03065 l 0.6476,-6.97043 39.90599,0.25043 39.90598,0.25043 16.809,38.63196 c 9.24494,21.24756 17.09416,38.31156 17.44271,37.92 0.34854,-0.39155 17.81031,-46.28793 38.80393,-101.99193 20.9936,-55.704 39.29361,-103.44 40.66667,-106.08 1.37307,-2.64 5.74527,-8.0846 9.71604,-12.09911 8.49963,-8.5932808 17.72153,-13.5557167 29.31242,-15.7734215 9.77904,-1.87103888 53.25752,-2.04029957 53.28532,-0.2074384 0.01,0.66 -28.82599,73.0131599 -64.08,160.7847999 l -64.0982,159.5848 -41.03709,0.0152 -41.03709,0.0152 z"
     id="path20"
     inkscape:connector-curvature="0" />
  <path
     style="stroke-width:0.77670646;fill:#d4aa00"
     d="m 303.43257,290.47866 c -8.54585,-17.08754 -15.83822,-31.06826 -16.20524,-31.06826 -0.36704,0 -3.94874,3.5576 -7.95935,7.90576 -9.81951,10.64597 -18.63989,18.23938 -29.81651,25.66881 -17.41575,11.57677 -37.41303,19.97273 -57.98072,24.34351 -12.90873,2.7432 -37.24392,3.475 -51.81935,1.55832 C 92.184524,312.64484 52.629585,288.27228 26.738424,249.31322 17.591373,235.54943 10.694885,220.33106 6.0018025,203.55406 1.864593,188.76422 1.1735916,183.44273 0.74863379,163.0988 0.35296057,144.15679 0.36212439,144.01551 2.7459964,132.30303 16.863288,62.94168 67.142968,14.055218 136.14737,2.598106 c 12.76991,-2.12024407 35.4962,-1.92226913 48.83747,0.4254366 18.79675,3.3077245 40.29973,10.7154884 54.2143,18.6767934 18.32716,10.485998 39.34554,29.821143 52.34524,48.153219 l 5.75449,8.114949 -76.04985,76.049846 -76.04985,76.04985 -4.31492,-1.25438 c -6.97827,-2.02864 -19.1139,-8.55882 -25.84904,-13.90938 -9.69183,-7.69942 -17.622124,-19.46514 -22.529744,-33.42608 l -2.139624,-6.08669 47.193878,-47.19863 c 32.02925,-32.032479 46.82926,-47.338552 46.05916,-47.634065 -4.49115,-1.723419 -17.88085,-3.063695 -26.87504,-2.690138 -21.68482,0.900653 -40.71658,9.315522 -56.13305,24.819153 -10.219417,10.27721 -18.466028,24.81944 -21.731256,38.32133 -2.196168,9.08126 -2.352198,29.35494 -0.295529,38.40032 6.739156,29.6393 31.030685,54.48227 60.849775,62.23113 7.74405,2.01239 23.15845,2.73462 32.34705,1.5156 22.00775,-2.9197 44.70556,-16.80933 55.99971,-34.2683 7.29705,-11.28009 12.79797,-25.83524 14.36997,-38.02221 0.46838,-3.6311 0.99866,-7.38842 1.17842,-8.34959 l 0.32683,-1.74759 31.24764,0.0988 c 17.1862,0.0544 35.01794,0.31649 39.62607,0.58253 l 8.37844,0.48372 12.03364,27.57308 c 14.94667,34.24778 21.33171,48.1558 22.10789,48.1558 0.33034,0 0.94693,-0.96117 1.37019,-2.13594 1.30212,-3.61403 66.57545,-175.473392 70.72584,-186.215375 8.49697,-21.991777 9.23988,-23.305428 18.14053,-32.077351 5.56533,-5.48484 7.66284,-7.033828 13.81798,-10.2044366 8.82769,-4.547286 13.82507,-5.5441581 30.6799,-6.11999892 8.54377,-0.29189561 20.07786,-0.35596037 25.63132,-0.1423661 l 10.09718,0.38835322 -0.1282,2.0042294 C 527.2852,4.7074066 451.011,195.98749 406.69695,305.81861 l -6.34597,15.72831 h -40.69025 -40.69024 z"
     id="path3725"
     inkscape:connector-curvature="0" />
</svg>
